<svg width="24" height="24" viewBox="0 0 24 24" fill="none" xmlns="http://www.w3.org/2000/svg">
<path d="M23.2969 8.48438H22.5938V7.78125C22.5938 7.39261 22.2793 7.07812 21.8906 7.07812C21.502 7.07812 21.1875 7.39261 21.1875 7.78125V8.48438H20.4844C20.0957 8.48438 19.7812 8.79886 19.7812 9.1875C19.7812 9.57614 20.0957 9.89062 20.4844 9.89062H21.1875V10.5938C21.1875 10.9824 21.502 11.2969 21.8906 11.2969C22.2793 11.2969 22.5938 10.9824 22.5938 10.5938V9.89062H23.2969C23.6855 9.89062 24 9.57614 24 9.1875C24 8.79886 23.6855 8.48438 23.2969 8.48438Z" fill="#FAFAFF"/>
<path d="M20.4375 5.67188C20.8258 5.67188 21.1406 5.35708 21.1406 4.96875C21.1406 4.58042 20.8258 4.26562 20.4375 4.26562C20.0492 4.26562 19.7344 4.58042 19.7344 4.96875C19.7344 5.35708 20.0492 5.67188 20.4375 5.67188Z" fill="#FAFAFF"/>
<path d="M17.625 9.89062C18.0133 9.89062 18.3281 9.57582 18.3281 9.1875C18.3281 8.79918 18.0133 8.48438 17.625 8.48438C17.2367 8.48438 16.9219 8.79918 16.9219 9.1875C16.9219 9.57582 17.2367 9.89062 17.625 9.89062Z" fill="#FAFAFF"/>
<path d="M11.5028 17.1278C11.7775 16.8532 12.2225 16.8532 12.4971 17.1278L12.7031 17.3339V11.2969H11.2969V17.3339L11.5028 17.1278Z" fill="#FAFAFF"/>
<path d="M19.0312 11.2969H14.1093V19.0312C14.1093 19.3155 13.9384 19.5723 13.6754 19.6807C13.5882 19.7171 13.4968 19.7343 13.4062 19.7343C13.2236 19.7343 13.0437 19.6629 12.9091 19.5283L12 18.6192L11.0908 19.5283C10.8889 19.7302 10.5882 19.7899 10.3245 19.6807C10.0615 19.5723 9.89055 19.3155 9.89055 19.0312V11.2969H9.49633L4.26562 14.3169V23.2968C4.26562 23.6854 4.58011 23.9999 4.96875 23.9999H19.0312C19.4198 23.9999 19.7343 23.6854 19.7343 23.2968V12C19.7343 11.6114 19.4198 11.2969 19.0312 11.2969Z" fill="#FAFAFF"/>
<path d="M17.379 4.30973L15.9728 1.87412C15.8794 1.71278 15.7256 1.59465 15.5457 1.54661C15.3665 1.49922 15.1736 1.52397 15.0122 1.61664L12.849 2.86557C12.8508 2.37498 12.7345 1.84299 12.4826 1.40706C12.107 0.75611 11.5007 0.290597 10.7749 0.0962547C10.0505 -0.0966817 9.29176 0.00217712 8.64085 0.377081C7.73931 0.898234 7.2003 1.86845 7.23597 2.90939L7.2408 3.05771C7.2408 3.06319 7.2408 3.06802 7.2415 3.0735L7.31017 5.15033L5.57642 4.07001L5.57365 4.06795L5.44732 3.98897C4.56294 3.43899 3.45468 3.41836 2.55178 3.93951C1.90083 4.31512 1.43532 4.9214 1.24097 5.64721C1.04663 6.37301 1.14624 7.13103 1.5218 7.78198C1.77844 8.22565 2.1397 8.5706 2.55511 8.80895L0.351713 10.0541C0.0153401 10.2483 -0.0998311 10.6783 0.094324 11.0147L1.54721 13.4505C1.74136 13.7868 2.17134 13.902 2.50772 13.7079L17.1217 5.27024C17.4579 5.07613 17.5731 4.6461 17.379 4.30973ZM4.6603 7.59345C3.98816 7.98002 3.12693 7.7502 2.73984 7.0789C2.3519 6.40737 2.58328 5.54493 3.25481 5.15769C3.70593 4.89609 4.26144 4.90705 4.70295 5.1824L6.69054 6.42125L4.6603 7.59345ZM11.4053 3.22406C11.3085 3.58627 11.0759 3.8895 10.7509 4.07695L8.72007 5.24947L8.64085 2.8613C8.6237 2.34015 8.89355 1.85537 9.34397 1.59512C9.66807 1.40631 10.0471 1.35756 10.411 1.45436C10.7736 1.55186 11.0771 1.78464 11.2645 2.11009C11.4527 2.43563 11.5028 2.86083 11.4053 3.22406Z" fill="#FAFAFF"/>
</svg>
