<svg width="281" height="85" viewBox="0 0 281 85" fill="none" xmlns="http://www.w3.org/2000/svg">
<g clip-path="url(#clip0_1_1825)">
<path d="M42.4229 84.8302C65.8481 84.8302 84.838 65.8403 84.838 42.4151C84.838 18.9899 65.8481 0 42.4229 0C18.9977 0 0.0078125 18.9899 0.0078125 42.4151C0.0078125 65.8403 18.9977 84.8302 42.4229 84.8302Z" fill="url(#paint0_linear_1_1825)"/>
<path d="M62.3832 34.6534C61.5571 34.1165 60.9722 33.2534 60.833 32.2781C59.7941 24.9992 53.2001 19.2988 45.2476 19.2988C39.8621 19.2988 34.9378 21.9622 32.0694 26.1551C31.5162 26.9637 30.6079 27.4603 29.6435 27.6321C27.0117 28.1011 24.8606 29.951 24.0981 32.3597C23.8103 33.2687 23.2534 34.1023 22.4505 34.6166C19.7417 36.3515 17.9863 39.2518 17.9863 42.4162C17.9863 47.6439 22.5721 51.9883 28.0902 51.9883H29.8109C31.2295 51.9883 32.3795 53.1383 32.3795 54.5569V58.2699C32.3795 59.2892 31.5532 60.1155 30.5339 60.1155C29.7655 60.1155 29.1062 59.6108 28.6257 59.0111C27.8456 58.0378 26.6186 57.4064 25.2306 57.4064C22.8655 57.4064 20.9412 59.2294 20.9412 61.4701C20.9412 63.7107 22.8655 65.5337 25.2306 65.5337C26.4334 65.5337 27.5153 65.0596 28.2902 64.2997C29.0537 63.5509 29.9647 62.8246 31.0342 62.8246H32.6705C34.0891 62.8246 35.2391 61.6746 35.2391 60.256V54.5569C35.2391 53.1383 36.3891 51.9883 37.8077 51.9883H38.3897C39.8083 51.9883 40.9583 53.1383 40.9583 54.5569V55.8126C40.9583 56.9143 40.192 57.8394 39.3835 58.5878C38.5918 59.3207 38.0987 60.339 38.0987 61.4701C38.0987 63.7107 40.0229 65.5337 42.388 65.5337C44.7532 65.5337 46.6774 63.7107 46.6774 61.4701C46.6774 60.339 46.1843 59.3207 45.3926 58.5878C44.5841 57.8394 43.8178 56.9143 43.8178 55.8126V54.5569C43.8178 53.1383 44.9678 51.9883 46.3864 51.9883H46.9684C48.387 51.9883 49.537 53.1383 49.537 54.5569V60.256C49.537 61.6746 50.687 62.8246 52.1056 62.8246H53.7419C54.8113 62.8246 55.7224 63.5509 56.4859 64.2997C57.2608 65.0596 58.3427 65.5337 59.5455 65.5337C61.9106 65.5337 63.8349 63.7107 63.8349 61.4701C63.8349 59.2294 62.1649 57.4064 59.5455 57.4064C58.1575 57.4064 56.9305 58.0378 56.1504 59.0111C55.6699 59.6108 55.0106 60.1155 54.2422 60.1155C53.2229 60.1155 52.3966 59.2892 52.3966 58.2699V54.5569C52.3966 53.1383 53.5466 51.9883 54.9652 51.9883H56.6859C62.204 51.9883 66.7898 47.6439 66.7898 42.4162C66.7898 39.2746 65.0591 36.3924 62.3832 34.6534ZM44.7748 46.4183C44.1248 46.7956 43.2321 46.5094 42.4818 46.4661C42.4192 46.4625 42.3564 46.4625 42.2938 46.4661C41.5436 46.5094 40.6509 46.7956 40.001 46.4182C39.3059 46.0147 39.0875 45.0837 39.7491 44.6272C41.2669 43.5797 43.5089 43.5796 45.0268 44.627C45.6885 45.0836 45.4701 46.0147 44.7748 46.4183ZM49.6522 43.5923C49.002 43.9686 48.1804 43.7555 47.6598 43.2139C46.3183 41.8185 44.4281 41.0141 42.388 41.0141C40.348 41.0141 38.4578 41.8185 37.1163 43.2139C36.5957 43.7555 35.7741 43.9686 35.124 43.5922C34.4275 43.1891 34.2036 42.277 34.7372 41.6746C36.6258 39.5428 39.3916 38.305 42.388 38.305C45.3847 38.305 48.1502 39.5427 50.039 41.6744C50.5727 42.2769 50.3488 43.1891 49.6522 43.5923ZM54.5312 40.7652C53.8809 41.1416 53.0559 40.9349 52.5833 40.3508C50.1566 37.3515 46.4378 35.5959 42.388 35.5959C38.3382 35.5959 34.6195 37.3515 32.1928 40.3508C31.7202 40.9349 30.8952 41.1416 30.2449 40.7652C29.5486 40.3621 29.3264 39.4539 29.8259 38.8232C32.7895 35.0811 37.3816 32.8869 42.388 32.8869C47.3945 32.8869 51.9866 35.0811 54.9502 38.8232C55.4497 39.4539 55.2275 40.3621 54.5312 40.7652Z" fill="black"/>
<path d="M62.3832 34.6534C61.5571 34.1165 60.9722 33.2534 60.833 32.2781C59.7941 24.9992 53.2001 19.2988 45.2476 19.2988C39.8621 19.2988 34.9378 21.9622 32.0694 26.1551C31.5162 26.9637 30.6079 27.4603 29.6435 27.6321C27.0117 28.1011 24.8606 29.951 24.0981 32.3597C23.8103 33.2687 23.2534 34.1023 22.4505 34.6166C19.7417 36.3515 17.9863 39.2518 17.9863 42.4162C17.9863 47.6439 22.5721 51.9883 28.0902 51.9883H29.8109C31.2295 51.9883 32.3795 53.1383 32.3795 54.5569V58.2699C32.3795 59.2892 31.5532 60.1155 30.5339 60.1155C29.7655 60.1155 29.1062 59.6108 28.6257 59.0111C27.8456 58.0378 26.6186 57.4064 25.2306 57.4064C22.8655 57.4064 20.9412 59.2294 20.9412 61.4701C20.9412 63.7107 22.8655 65.5337 25.2306 65.5337C26.4334 65.5337 27.5153 65.0596 28.2902 64.2997C29.0537 63.5509 29.9647 62.8246 31.0342 62.8246H32.6705C34.0891 62.8246 35.2391 61.6746 35.2391 60.256V54.5569C35.2391 53.1383 36.3891 51.9883 37.8077 51.9883H38.3897C39.8083 51.9883 40.9583 53.1383 40.9583 54.5569V55.8126C40.9583 56.9143 40.192 57.8394 39.3835 58.5878C38.5918 59.3207 38.0987 60.339 38.0987 61.4701C38.0987 63.7107 40.0229 65.5337 42.388 65.5337C44.7532 65.5337 46.6774 63.7107 46.6774 61.4701C46.6774 60.339 46.1843 59.3207 45.3926 58.5878C44.5841 57.8394 43.8178 56.9143 43.8178 55.8126V54.5569C43.8178 53.1383 44.9678 51.9883 46.3864 51.9883H46.9684C48.387 51.9883 49.537 53.1383 49.537 54.5569V60.256C49.537 61.6746 50.687 62.8246 52.1056 62.8246H53.7419C54.8113 62.8246 55.7224 63.5509 56.4859 64.2997C57.2608 65.0596 58.3427 65.5337 59.5455 65.5337C61.9106 65.5337 63.8349 63.7107 63.8349 61.4701C63.8349 59.2294 62.1649 57.4064 59.5455 57.4064C58.1575 57.4064 56.9305 58.0378 56.1504 59.0111C55.6699 59.6108 55.0106 60.1155 54.2422 60.1155C53.2229 60.1155 52.3966 59.2892 52.3966 58.2699V54.5569C52.3966 53.1383 53.5466 51.9883 54.9652 51.9883H56.6859C62.204 51.9883 66.7898 47.6439 66.7898 42.4162C66.7898 39.2746 65.0591 36.3924 62.3832 34.6534ZM44.7748 46.4183C44.1248 46.7956 43.2321 46.5094 42.4818 46.4661C42.4192 46.4625 42.3564 46.4625 42.2938 46.4661C41.5436 46.5094 40.6509 46.7956 40.001 46.4182C39.3059 46.0147 39.0875 45.0837 39.7491 44.6272C41.2669 43.5797 43.5089 43.5796 45.0268 44.627C45.6885 45.0836 45.4701 46.0147 44.7748 46.4183ZM49.6522 43.5923C49.002 43.9686 48.1804 43.7555 47.6598 43.2139C46.3183 41.8185 44.4281 41.0141 42.388 41.0141C40.348 41.0141 38.4578 41.8185 37.1163 43.2139C36.5957 43.7555 35.7741 43.9686 35.124 43.5922C34.4275 43.1891 34.2036 42.277 34.7372 41.6746C36.6258 39.5428 39.3916 38.305 42.388 38.305C45.3847 38.305 48.1502 39.5427 50.039 41.6744C50.5727 42.2769 50.3488 43.1891 49.6522 43.5923ZM54.5312 40.7652C53.8809 41.1416 53.0559 40.9349 52.5833 40.3508C50.1566 37.3515 46.4378 35.5959 42.388 35.5959C38.3382 35.5959 34.6195 37.3515 32.1928 40.3508C31.7202 40.9349 30.8952 41.1416 30.2449 40.7652C29.5486 40.3621 29.3264 39.4539 29.8259 38.8232C32.7895 35.0811 37.3816 32.8869 42.388 32.8869C47.3945 32.8869 51.9866 35.0811 54.9502 38.8232C55.4497 39.4539 55.2275 40.3621 54.5312 40.7652Z" fill="url(#paint1_linear_1_1825)"/>
</g>
<path d="M106.241 45.5714H101.668C100.747 45.5714 100 44.8248 100 43.9038V28.8105C100 27.8895 100.747 27.1429 101.668 27.1429H104.574C105.495 27.1429 106.241 27.8895 106.241 28.8105V45.5714ZM112.483 45.5714V28.8105C112.483 27.8895 113.229 27.1429 114.15 27.1429H117.057C117.978 27.1429 118.724 27.8895 118.724 28.8105V43.9038C118.724 44.8248 117.978 45.5714 117.057 45.5714H112.483ZM112.483 56.1895C112.483 57.1105 111.736 57.8571 110.815 57.8571H107.909C106.988 57.8571 106.241 57.1105 106.241 56.1895V45.5714H112.483V56.1895Z" fill="url(#paint2_linear_1_1825)"/>
<path d="M131.207 56.1895C131.207 57.1105 130.46 57.8571 129.539 57.8571H126.633C125.712 57.8571 124.966 57.1105 124.966 56.1895V34.9533C124.966 34.0323 125.712 33.2857 126.633 33.2857H148.263C149.184 33.2857 149.931 34.0323 149.931 34.9533V39.4286H145.357C144.436 39.4286 143.69 40.1752 143.69 41.0962V56.1895C143.69 57.1105 142.943 57.8571 142.022 57.8571H139.116C138.195 57.8571 137.448 57.1105 137.448 56.1895V41.0962C137.448 40.1752 136.702 39.4286 135.781 39.4286H132.875C131.954 39.4286 131.207 40.1752 131.207 41.0962V56.1895ZM156.172 56.1895C156.172 57.1105 155.426 57.8571 154.505 57.8571H151.599C150.678 57.8571 149.931 57.1105 149.931 56.1895V39.4286H154.505C155.426 39.4286 156.172 40.1752 156.172 41.0962V56.1895Z" fill="url(#paint3_linear_1_1825)"/>
<path d="M168.655 56.1895C168.655 57.1105 167.909 57.8571 166.988 57.8571H164.081C163.16 57.8571 162.414 57.1105 162.414 56.1895V28.8105C162.414 27.8895 163.16 27.1429 164.081 27.1429H166.988C167.909 27.1429 168.655 27.8895 168.655 28.8105V56.1895Z" fill="url(#paint4_linear_1_1825)"/>
<path d="M176.564 27.1429C175.643 27.1429 174.897 26.3962 174.897 25.4752V22.6676C174.897 21.7466 175.643 21 176.564 21H179.47C180.391 21 181.138 21.7466 181.138 22.6676V25.4752C181.138 26.3962 180.391 27.1429 179.47 27.1429H176.564ZM181.138 56.1895C181.138 57.1105 180.391 57.8571 179.47 57.8571H176.564C175.643 57.8571 174.897 57.1105 174.897 56.1895V34.9533C174.897 34.0323 175.643 33.2857 176.564 33.2857H179.47C180.391 33.2857 181.138 34.0323 181.138 34.9533V56.1895Z" fill="url(#paint5_linear_1_1825)"/>
<path d="M193.621 56.1895C193.621 57.1105 192.874 57.8571 191.953 57.8571H189.047C188.126 57.8571 187.379 57.1105 187.379 56.1895V34.9533C187.379 34.0323 188.126 33.2857 189.047 33.2857H198.194C199.115 33.2857 199.862 34.0323 199.862 34.9533V39.4286H195.288C194.367 39.4286 193.621 40.1752 193.621 41.0962V56.1895ZM206.103 56.1895C206.103 57.1105 205.357 57.8571 204.436 57.8571H201.53C200.609 57.8571 199.862 57.1105 199.862 56.1895V39.4286H204.436C205.357 39.4286 206.103 40.1752 206.103 41.0962V56.1895Z" fill="url(#paint6_linear_1_1825)"/>
<path d="M218.586 51.7143H214.012C213.091 51.7143 212.345 50.9677 212.345 50.0467V41.0962C212.345 40.1752 213.091 39.4286 214.012 39.4286H216.919C217.84 39.4286 218.586 38.682 218.586 37.761V34.9533C218.586 34.0323 219.333 33.2857 220.254 33.2857H223.16C224.081 33.2857 224.828 34.0323 224.828 34.9533V37.761C224.828 38.682 225.574 39.4286 226.495 39.4286H229.401C230.322 39.4286 231.069 40.1752 231.069 41.0962V43.9038C231.069 44.8248 230.322 45.5714 229.401 45.5714H220.254C219.333 45.5714 218.586 46.318 218.586 47.239V51.7143ZM220.254 57.8571C219.333 57.8571 218.586 57.1105 218.586 56.1895V51.7143H229.401C230.322 51.7143 231.069 52.4609 231.069 53.3819V56.1895C231.069 57.1105 230.322 57.8571 229.401 57.8571H220.254Z" fill="url(#paint7_linear_1_1825)"/>
<path d="M238.978 57.8571C238.057 57.8571 237.31 57.1105 237.31 56.1895V53.3819C237.31 52.4609 238.057 51.7143 238.978 51.7143H241.884C242.805 51.7143 243.552 52.4609 243.552 53.3819V56.1895C243.552 57.1105 242.805 57.8571 241.884 57.8571H238.978Z" fill="url(#paint8_linear_1_1825)"/>
<path d="M262.276 51.7143V56.1895C262.276 57.1105 261.529 57.8571 260.608 57.8571H257.702C256.781 57.8571 256.034 58.6038 256.034 59.5248V62.3324C256.034 63.2534 255.288 64 254.367 64H251.461C250.54 64 249.793 63.2534 249.793 62.3324V34.9533C249.793 34.0323 250.54 33.2857 251.461 33.2857H260.608C261.529 33.2857 262.276 34.0323 262.276 34.9533V39.4286H257.702C256.781 39.4286 256.034 40.1752 256.034 41.0962V50.0467C256.034 50.9677 256.781 51.7143 257.702 51.7143H262.276ZM268.517 50.0467C268.517 50.9677 267.771 51.7143 266.85 51.7143H262.276V39.4286H266.85C267.771 39.4286 268.517 40.1752 268.517 41.0962V50.0467Z" fill="url(#paint9_linear_1_1825)"/>
<path d="M281 56.1895C281 57.1105 280.253 57.8571 279.332 57.8571H276.426C275.505 57.8571 274.759 57.1105 274.759 56.1895V28.8105C274.759 27.8895 275.505 27.1429 276.426 27.1429H279.332C280.253 27.1429 281 27.8895 281 28.8105V56.1895Z" fill="url(#paint10_linear_1_1825)"/>
<defs>
<linearGradient id="paint0_linear_1_1825" x1="42.4229" y1="84.8302" x2="42.4229" y2="0" gradientUnits="userSpaceOnUse">
<stop stop-color="#ADDCFF"/>
<stop offset="0.5028" stop-color="#EAF6FF"/>
<stop offset="1" stop-color="#EAF6FF"/>
</linearGradient>
<linearGradient id="paint1_linear_1_1825" x1="42.388" y1="65.5337" x2="42.388" y2="19.2988" gradientUnits="userSpaceOnUse">
<stop stop-color="#00C0FF"/>
<stop offset="1" stop-color="#3235E7"/>
</linearGradient>
<linearGradient id="paint2_linear_1_1825" x1="194.073" y1="69.4306" x2="194.073" y2="14.8698" gradientUnits="userSpaceOnUse">
<stop stop-color="#00C0FF"/>
<stop offset="1" stop-color="#3235E7"/>
</linearGradient>
<linearGradient id="paint3_linear_1_1825" x1="194.073" y1="69.4306" x2="194.073" y2="14.8698" gradientUnits="userSpaceOnUse">
<stop stop-color="#00C0FF"/>
<stop offset="1" stop-color="#3235E7"/>
</linearGradient>
<linearGradient id="paint4_linear_1_1825" x1="194.073" y1="69.4306" x2="194.073" y2="14.8698" gradientUnits="userSpaceOnUse">
<stop stop-color="#00C0FF"/>
<stop offset="1" stop-color="#3235E7"/>
</linearGradient>
<linearGradient id="paint5_linear_1_1825" x1="194.073" y1="69.4306" x2="194.073" y2="14.8698" gradientUnits="userSpaceOnUse">
<stop stop-color="#00C0FF"/>
<stop offset="1" stop-color="#3235E7"/>
</linearGradient>
<linearGradient id="paint6_linear_1_1825" x1="194.073" y1="69.4306" x2="194.073" y2="14.8698" gradientUnits="userSpaceOnUse">
<stop stop-color="#00C0FF"/>
<stop offset="1" stop-color="#3235E7"/>
</linearGradient>
<linearGradient id="paint7_linear_1_1825" x1="194.073" y1="69.4306" x2="194.073" y2="14.8698" gradientUnits="userSpaceOnUse">
<stop stop-color="#00C0FF"/>
<stop offset="1" stop-color="#3235E7"/>
</linearGradient>
<linearGradient id="paint8_linear_1_1825" x1="194.073" y1="69.4306" x2="194.073" y2="14.8698" gradientUnits="userSpaceOnUse">
<stop stop-color="#00C0FF"/>
<stop offset="1" stop-color="#3235E7"/>
</linearGradient>
<linearGradient id="paint9_linear_1_1825" x1="194.073" y1="69.4306" x2="194.073" y2="14.8698" gradientUnits="userSpaceOnUse">
<stop stop-color="#00C0FF"/>
<stop offset="1" stop-color="#3235E7"/>
</linearGradient>
<linearGradient id="paint10_linear_1_1825" x1="194.073" y1="69.4306" x2="194.073" y2="14.8698" gradientUnits="userSpaceOnUse">
<stop stop-color="#00C0FF"/>
<stop offset="1" stop-color="#3235E7"/>
</linearGradient>
<clipPath id="clip0_1_1825">
<rect width="84.8302" height="84.8302" fill="white" transform="translate(0.00976562)"/>
</clipPath>
</defs>
</svg>
