<svg width="16" height="16" viewBox="0 0 16 16" fill="none" xmlns="http://www.w3.org/2000/svg">
<path d="M14.9488 2.2393C14.92 2.03301 14.7716 1.86332 14.571 1.80754L8.14028 0.0191678C8.04861 -0.00634857 7.95177 -0.00634857 7.86002 0.0191678L1.42935 1.80754C1.2287 1.86332 1.08028 2.03294 1.05155 2.2393C1.01425 2.5075 0.16336 8.84447 2.34584 11.9969C4.52575 15.1456 7.74157 15.9525 7.87738 15.9854C7.91775 15.9951 7.95888 15.9999 8.00015 15.9999C8.04143 15.9999 8.08256 15.995 8.12292 15.9854C8.2588 15.9525 11.4746 15.1456 13.6545 11.9969C15.8369 8.84454 14.9861 2.50757 14.9488 2.2393ZM12.1471 5.93889L7.76075 10.3253C7.65868 10.4273 7.52482 10.4784 7.39104 10.4784C7.25725 10.4784 7.1234 10.4274 7.02133 10.3253L4.30928 7.61321C4.21119 7.51518 4.15611 7.38217 4.15611 7.2435C4.15611 7.10483 4.21126 6.97181 4.30928 6.87379L4.84777 6.3353C5.05197 6.13117 5.38306 6.1311 5.58719 6.3353L7.39104 8.13915L10.8692 4.66091C10.9672 4.56282 11.1002 4.50774 11.2389 4.50774C11.3776 4.50774 11.5106 4.56282 11.6086 4.66091L12.1471 5.1994C12.3513 5.4036 12.3513 5.73469 12.1471 5.93889Z" fill="#565656"/>
</svg>
