<svg width="16" height="16" viewBox="0 0 16 16" fill="none" xmlns="http://www.w3.org/2000/svg">
<path d="M9.10827 6.28442C8.92553 6.46655 8.92553 6.76452 9.10876 6.94726C9.29137 7.12939 9.58886 7.12939 9.7716 6.94726C9.95421 6.76415 9.95421 6.46655 9.77111 6.28393C9.58935 6.10217 9.29211 6.10058 9.10827 6.28442Z" fill="#565656"/>
<path d="M5.97192 16L13.2187 8.80077V6.80383L13.0781 6.94457C12.3548 7.68041 11.2953 7.92821 10.3578 7.67577C9.7849 8.16674 8.963 8.1278 8.4453 7.6101C7.9016 7.057 7.9016 6.16638 8.4453 5.62267C8.9984 5.06957 9.88903 5.06957 10.4327 5.62267C10.761 5.9414 10.8922 6.38195 10.8265 6.81323C11.4078 6.8977 11.9984 6.7102 12.4203 6.28832L13.2187 5.48205V2.84375H10.5734L11.9515 1.46008C12.6546 0.74768 13.8921 0.74768 14.5952 1.46008C15.3249 2.16955 15.1466 3.57092 14.4078 4.29138L13.2187 5.48205V6.80383L15.0735 4.95703C16.1874 3.84301 16.3536 1.86804 15.261 0.794555C14.2015 -0.264892 12.3453 -0.264892 11.2859 0.794555L9.25158 2.84375H7.25475L0 10.0281L5.97192 16ZM5.46411 7.28197L8.77343 10.5914L8.11718 11.2571L4.79846 7.93822L5.46411 7.28197ZM7.45153 11.9226L6.78588 12.5788L3.47656 9.26952L4.13281 8.60387L7.45153 11.9226Z" fill="#565656"/>
</svg>
